<?xml version="1.0" encoding="utf-8"?>
<!-- Uploaded to: SVG Repo, www.svgrepo.com, Generator: SVG Repo Mixer Tools -->
<svg width="800px" height="800px" viewBox="0 0 1024 1024" class="icon"  version="1.1" xmlns="http://www.w3.org/2000/svg"><path d="M482.133333 170.666667h59.733334l17.066666 42.666666h-93.866666z" fill="#00897B" /><path d="M512 149.333333m-42.666667 0a42.666667 42.666667 0 1 0 85.333334 0 42.666667 42.666667 0 1 0-85.333334 0Z" fill="#26A69A" /><path d="M341.333333 661.333333h341.333334v192H341.333333z" fill="#455A64" /><path d="M618.666667 256v-42.666667H405.333333v42.666667c25.6 21.333333 42.666667 42.666667 42.666667 85.333333s-42.666667 320-42.666667 320h213.333334s-42.666667-277.333333-42.666667-320 17.066667-64 42.666667-85.333333z" fill="#26A69A" /><path d="M746.666667 917.333333H277.333333v-21.333333c0-23.466667 19.2-42.666667 42.666667-42.666667h384c23.466667 0 42.666667 19.2 42.666667 42.666667v21.333333zM320 640h384v42.666667H320zM384 725.333333h256v85.333334H384z" fill="#607D8B" /></svg>